<svg width="94" height="28" viewBox="0 0 94 28" fill="none" xmlns="http://www.w3.org/2000/svg">
<path d="M0.658905 0.414376C0.269552 0.414376 0 0.710359 0 1.06554V20.4524C0 20.8372 0.269552 21.1332 0.658905 21.1332H8.89522C15.3645 21.1332 19.6174 16.9006 19.6174 10.7442C19.6174 4.55814 15.3645 0.414376 8.89522 0.414376H0.658905ZM4.49254 17.0486V4.49894H8.89522C12.4892 4.49894 14.9152 7.13319 14.9152 10.7442C14.9152 14.296 12.4892 17.0486 8.89522 17.0486H4.49254Z" fill="#385BFF"/>
<path d="M29.2392 6.51163C27.8315 6.51163 26.6035 7.22199 25.7949 8.49472V7.31078C25.7949 6.9852 25.4954 6.71882 25.1659 6.71882H22.2907C21.9313 6.71882 21.6617 7.0148 21.6617 7.36998V20.5116C21.6617 20.8668 21.9313 21.1332 22.2907 21.1332H25.3157C25.6451 21.1332 25.9746 20.8964 25.9746 20.5412V14.148C25.9746 11.9281 26.933 11.0402 28.8199 11.0402H29.5986C29.8382 11.0402 30.3773 10.9218 30.3773 10.241V7.31078C30.3773 6.63002 29.9879 6.51163 29.6585 6.51163H29.2392Z" fill="#385BFF"/>
<path d="M34.1435 5.1797C35.5512 5.1797 36.7192 3.99577 36.7192 2.60465C36.7192 1.18393 35.5512 0 34.1435 0C32.7059 0 31.5378 1.18393 31.5378 2.60465C31.5378 3.99577 32.7059 5.1797 34.1435 5.1797ZM35.641 21.1332C36.0004 21.1332 36.27 20.8372 36.27 20.482V7.36998C36.27 7.0148 36.0004 6.71882 35.641 6.71882H32.616C32.2566 6.71882 31.9571 7.0148 31.9571 7.36998V20.482C31.9571 20.8372 32.2566 21.1332 32.616 21.1332H35.641Z" fill="#385BFF"/>
<path d="M43.1426 13.9408C43.1426 11.9281 44.7 10.2706 46.7366 10.2706C48.7733 10.2706 50.3007 11.9281 50.3007 13.9408C50.3007 15.9831 48.7733 17.611 46.7366 17.611C44.7 17.611 43.1426 15.9831 43.1426 13.9408ZM43.1127 7.36998C43.1127 7.0148 42.8431 6.71882 42.4837 6.71882H39.4887C39.1293 6.71882 38.8597 7.0148 38.8597 7.36998V26.9345C38.8597 27.2896 39.1293 27.556 39.4887 27.556H42.5436C42.8731 27.556 43.1726 27.2896 43.1726 26.9345V19.7717C44.0112 20.9852 45.7782 21.5476 47.4255 21.5476C51.2891 21.5476 54.6435 18.5581 54.6435 13.9112C54.6435 9.26427 51.2891 6.30444 47.4854 6.30444C45.4787 6.30444 43.9513 7.10359 43.1127 8.25793V7.36998Z" fill="#385BFF"/>
<path d="M60.8378 13.9408C60.8378 11.9281 62.3952 10.2706 64.4319 10.2706C66.4685 10.2706 67.9959 11.9281 67.9959 13.9408C67.9959 15.9831 66.4685 17.611 64.4319 17.611C62.3952 17.611 60.8378 15.9831 60.8378 13.9408ZM60.8079 7.36998C60.8079 7.0148 60.5383 6.71882 60.1789 6.71882H57.1839C56.8245 6.71882 56.5549 7.0148 56.5549 7.36998V26.9345C56.5549 27.2896 56.8245 27.556 57.1839 27.556H60.2388C60.5683 27.556 60.8678 27.2896 60.8678 26.9345V19.7717C61.7064 20.9852 63.4734 21.5476 65.1207 21.5476C68.9843 21.5476 72.3387 18.5581 72.3387 13.9112C72.3387 9.26427 68.9843 6.30444 65.1806 6.30444C63.1739 6.30444 61.6465 7.10359 60.8079 8.25793V7.36998Z" fill="#385BFF"/>
<path d="M77.2258 28C80.2507 28 82.1975 26.2833 83.0661 23.5603L88.0378 7.72516C88.2474 7.13319 88.0677 6.71882 87.4687 6.71882H84.0844C83.6052 6.71882 83.3656 7.0444 83.2757 7.39958L80.5802 17.2262L77.675 7.39958C77.5852 7.0444 77.3755 6.71882 76.9861 6.71882H73.482C72.7332 6.71882 72.6434 7.22199 72.7931 7.72516L77.076 20.5116C77.1958 20.8668 77.4354 21.1332 77.8847 21.1332H79.4121L78.7532 22.9683C78.4238 23.8266 77.7649 24.3298 76.9262 24.3298C76.2374 24.3298 75.6084 24.0042 75.1292 23.649C74.7399 23.3827 74.1708 23.2643 73.8114 23.8266L72.7332 25.3658C72.4337 25.8097 72.4637 26.1945 72.7931 26.4905C73.8414 27.4376 75.4287 28 77.2258 28Z" fill="#385BFF"/>
<path d="M91.1547 21.5476C92.7121 21.5476 94 20.3044 94 18.7653C94 17.2262 92.7121 15.9831 91.1547 15.9831C89.5973 15.9831 88.3394 17.2262 88.3394 18.7653C88.3394 20.3044 89.5973 21.5476 91.1547 21.5476Z" fill="#385BFF"/>
</svg>
