<svg width="32" height="32" viewBox="0 0 32 32" fill="none" xmlns="http://www.w3.org/2000/svg">
<path d="M32 16C32 24.8366 24.8366 32 16 32C7.16344 32 0 24.8366 0 16C0 7.16344 7.16344 0 16 0C24.8366 0 32 7.16344 32 16Z" fill="#385BFF"/>
<path d="M15.3893 10.113C16.9241 9.92976 18.4716 10.3569 19.6901 11.2982C20.908 12.2391 21.6945 13.6136 21.8841 15.1157C22.0737 16.6172 21.6523 18.1298 20.7103 19.3221C19.7677 20.515 18.3783 21.2924 16.844 21.4756L13.0529 21.9284C12.4754 21.936 11.9121 21.7481 11.4576 21.397C11.0041 21.0467 10.6893 20.5577 10.5594 20.0144L10.1159 16.5008C9.92634 14.9993 10.3477 13.4867 11.2897 12.2944C12.2323 11.1015 13.6217 10.3242 15.156 10.1409L15.3893 10.113Z" stroke="white" stroke-width="3"/>
</svg>
