<svg width="174" height="50" viewBox="0 0 174 50" fill="none" xmlns="http://www.w3.org/2000/svg">
<path d="M59.916 11.8C59.448 11.8 59.124 12.16 59.124 12.592V36.172C59.124 36.64 59.448 37 59.916 37H69.816C77.592 37 82.704 31.852 82.704 24.364C82.704 16.84 77.592 11.8 69.816 11.8H59.916ZM64.524 32.032V16.768H69.816C74.136 16.768 77.052 19.972 77.052 24.364C77.052 28.684 74.136 32.032 69.816 32.032H64.524ZM94.2693 19.216C92.5773 19.216 91.1013 20.08 90.1293 21.628V20.188C90.1293 19.792 89.7693 19.468 89.3733 19.468H85.9173C85.4853 19.468 85.1613 19.828 85.1613 20.26V36.244C85.1613 36.676 85.4853 37 85.9173 37H89.5533C89.9493 37 90.3453 36.712 90.3453 36.28V28.504C90.3453 25.804 91.4973 24.724 93.7653 24.724H94.7013C94.9893 24.724 95.6373 24.58 95.6373 23.752V20.188C95.6373 19.36 95.1693 19.216 94.7733 19.216H94.2693ZM100.164 17.596C101.856 17.596 103.26 16.156 103.26 14.464C103.26 12.736 101.856 11.296 100.164 11.296C98.4363 11.296 97.0323 12.736 97.0323 14.464C97.0323 16.156 98.4363 17.596 100.164 17.596ZM101.964 37C102.396 37 102.72 36.64 102.72 36.208V20.26C102.72 19.828 102.396 19.468 101.964 19.468H98.3283C97.8963 19.468 97.5363 19.828 97.5363 20.26V36.208C97.5363 36.64 97.8963 37 98.3283 37H101.964ZM110.981 28.252C110.981 25.804 112.853 23.788 115.301 23.788C117.749 23.788 119.585 25.804 119.585 28.252C119.585 30.736 117.749 32.716 115.301 32.716C112.853 32.716 110.981 30.736 110.981 28.252ZM110.945 20.26C110.945 19.828 110.621 19.468 110.189 19.468H106.589C106.157 19.468 105.833 19.828 105.833 20.26V44.056C105.833 44.488 106.157 44.812 106.589 44.812H110.261C110.657 44.812 111.017 44.488 111.017 44.056V35.344C112.025 36.82 114.149 37.504 116.129 37.504C120.773 37.504 124.805 33.868 124.805 28.216C124.805 22.564 120.773 18.964 116.201 18.964C113.789 18.964 111.953 19.936 110.945 21.34V20.26ZM132.251 28.252C132.251 25.804 134.123 23.788 136.571 23.788C139.019 23.788 140.855 25.804 140.855 28.252C140.855 30.736 139.019 32.716 136.571 32.716C134.123 32.716 132.251 30.736 132.251 28.252ZM132.215 20.26C132.215 19.828 131.891 19.468 131.459 19.468H127.859C127.427 19.468 127.103 19.828 127.103 20.26V44.056C127.103 44.488 127.427 44.812 127.859 44.812H131.531C131.927 44.812 132.287 44.488 132.287 44.056V35.344C133.295 36.82 135.419 37.504 137.399 37.504C142.043 37.504 146.075 33.868 146.075 28.216C146.075 22.564 142.043 18.964 137.471 18.964C135.059 18.964 133.223 19.936 132.215 21.34V20.26ZM151.949 45.352C155.585 45.352 157.925 43.264 158.969 39.952L164.945 20.692C165.197 19.972 164.981 19.468 164.261 19.468H160.193C159.617 19.468 159.329 19.864 159.221 20.296L155.981 32.248L152.489 20.296C152.381 19.864 152.129 19.468 151.661 19.468H147.449C146.549 19.468 146.441 20.08 146.621 20.692L151.769 36.244C151.913 36.676 152.201 37 152.741 37H154.577L153.785 39.232C153.389 40.276 152.597 40.888 151.589 40.888C150.761 40.888 150.005 40.492 149.429 40.06C148.961 39.736 148.277 39.592 147.845 40.276L146.549 42.148C146.189 42.688 146.225 43.156 146.621 43.516C147.881 44.668 149.789 45.352 151.949 45.352ZM168.691 37.504C170.563 37.504 172.111 35.992 172.111 34.12C172.111 32.248 170.563 30.736 168.691 30.736C166.819 30.736 165.307 32.248 165.307 34.12C165.307 35.992 166.819 37.504 168.691 37.504Z" fill="black"/>
<circle cx="25" cy="25" r="25" fill="#385BFF"/>
<path d="M24.4257 15.1747C27.0945 14.8505 29.7906 15.6159 31.9203 17.3119C34.0511 19.0087 35.4397 21.4983 35.7721 24.2355C36.1046 26.9727 35.3524 29.7223 33.6898 31.8799C32.028 34.0364 29.5936 35.425 26.9248 35.7492L20.7085 36.5042C19.6107 36.526 18.5321 36.1617 17.6572 35.465C16.7806 34.7669 16.1643 33.7791 15.9184 32.6682L15.1977 26.7346C14.8652 23.9974 15.6174 21.2477 17.28 19.0902C18.9418 16.9336 21.3762 15.5451 24.0451 15.2209L24.4257 15.1747Z" stroke="white" stroke-width="3.5"/>
</svg>
