<svg width="256" height="256" viewBox="0 0 256 256" fill="none" xmlns="http://www.w3.org/2000/svg">
<rect width="256" height="256" rx="20" fill="#385BFF"/>
<mask id="path-2-inside-1_5003_5300" fill="white">
<path d="M87.784 112C87.2151 112 86.8213 112.457 86.8213 113.006V142.948C86.8213 143.543 87.2151 144 87.784 144H99.8182C109.271 144 115.485 137.463 115.485 127.954C115.485 118.4 109.271 112 99.8182 112H87.784ZM93.3854 137.691V118.308H99.8182C105.069 118.308 108.614 122.377 108.614 127.954C108.614 133.44 105.069 137.691 99.8182 137.691H93.3854Z"/>
<path d="M129.543 121.417C127.486 121.417 125.692 122.514 124.511 124.48V122.651C124.511 122.148 124.073 121.737 123.592 121.737H119.391C118.865 121.737 118.472 122.194 118.472 122.743V143.04C118.472 143.588 118.865 144 119.391 144H123.81C124.292 144 124.773 143.634 124.773 143.086V133.211C124.773 129.783 126.173 128.411 128.93 128.411H130.068C130.418 128.411 131.206 128.228 131.206 127.177V122.651C131.206 121.6 130.637 121.417 130.156 121.417H129.543Z"/>
<path d="M136.709 119.36C138.766 119.36 140.472 117.531 140.472 115.383C140.472 113.188 138.766 111.36 136.709 111.36C134.608 111.36 132.902 113.188 132.902 115.383C132.902 117.531 134.608 119.36 136.709 119.36ZM138.897 144C139.422 144 139.816 143.543 139.816 142.994V122.743C139.816 122.194 139.422 121.737 138.897 121.737H134.477C133.952 121.737 133.514 122.194 133.514 122.743V142.994C133.514 143.543 133.952 144 134.477 144H138.897Z"/>
<path d="M149.858 132.891C149.858 129.783 152.133 127.223 155.109 127.223C158.085 127.223 160.316 129.783 160.316 132.891C160.316 136.046 158.085 138.56 155.109 138.56C152.133 138.56 149.858 136.046 149.858 132.891ZM149.814 122.743C149.814 122.194 149.42 121.737 148.895 121.737H144.519C143.994 121.737 143.6 122.194 143.6 122.743V152.96C143.6 153.508 143.994 153.92 144.519 153.92H148.982C149.464 153.92 149.901 153.508 149.901 152.96V141.897C151.127 143.771 153.708 144.64 156.115 144.64C161.76 144.64 166.662 140.023 166.662 132.846C166.662 125.668 161.76 121.097 156.203 121.097C153.271 121.097 151.039 122.331 149.814 124.114V122.743Z"/>
<path d="M175.712 132.891C175.712 129.783 177.988 127.223 180.964 127.223C183.939 127.223 186.171 129.783 186.171 132.891C186.171 136.046 183.939 138.56 180.964 138.56C177.988 138.56 175.712 136.046 175.712 132.891ZM175.668 122.743C175.668 122.194 175.275 121.737 174.749 121.737H170.373C169.848 121.737 169.454 122.194 169.454 122.743V152.96C169.454 153.508 169.848 153.92 170.373 153.92H174.837C175.318 153.92 175.756 153.508 175.756 152.96V141.897C176.981 143.771 179.563 144.64 181.97 144.64C187.615 144.64 192.516 140.023 192.516 132.846C192.516 125.668 187.615 121.097 182.058 121.097C179.126 121.097 176.894 122.331 175.668 124.114V122.743Z"/>
<path d="M199.657 154.606C204.077 154.606 206.921 151.954 208.19 147.748L215.454 123.291C215.761 122.377 215.498 121.737 214.623 121.737H209.678C208.978 121.737 208.628 122.24 208.497 122.788L204.558 137.966L200.313 122.788C200.182 122.24 199.876 121.737 199.307 121.737H194.187C193.093 121.737 192.961 122.514 193.18 123.291L199.438 143.04C199.613 143.588 199.963 144 200.62 144H202.851L201.889 146.834C201.407 148.16 200.445 148.937 199.219 148.937C198.213 148.937 197.294 148.434 196.594 147.886C196.025 147.474 195.193 147.291 194.668 148.16L193.093 150.537C192.655 151.223 192.699 151.817 193.18 152.274C194.712 153.737 197.031 154.606 199.657 154.606Z"/>
<path d="M220.009 144.64C222.284 144.64 224.166 142.72 224.166 140.343C224.166 137.966 222.284 136.046 220.009 136.046C217.733 136.046 215.895 137.966 215.895 140.343C215.895 142.72 217.733 144.64 220.009 144.64Z"/>
<path d="M52.4729 102.113C58.0848 101.401 63.742 103.085 68.1999 106.793C72.6579 110.502 75.5514 115.932 76.2441 121.888C76.9367 127.845 75.3716 133.841 71.8931 138.556C68.4147 143.272 63.3078 146.321 57.6959 147.033L46.4365 148.462C43.6794 148.562 40.9741 147.624 38.7988 145.814C36.6236 144.005 35.1185 141.44 34.5497 138.573L33.2441 127.344C32.5515 121.388 34.1166 115.392 37.595 110.677C41.0735 105.961 46.1804 102.912 51.7923 102.2L52.4729 102.113Z"/>
</mask>
<path d="M87.784 112C87.2151 112 86.8213 112.457 86.8213 113.006V142.948C86.8213 143.543 87.2151 144 87.784 144H99.8182C109.271 144 115.485 137.463 115.485 127.954C115.485 118.4 109.271 112 99.8182 112H87.784ZM93.3854 137.691V118.308H99.8182C105.069 118.308 108.614 122.377 108.614 127.954C108.614 133.44 105.069 137.691 99.8182 137.691H93.3854Z" fill="white"/>
<path d="M129.543 121.417C127.486 121.417 125.692 122.514 124.511 124.48V122.651C124.511 122.148 124.073 121.737 123.592 121.737H119.391C118.865 121.737 118.472 122.194 118.472 122.743V143.04C118.472 143.588 118.865 144 119.391 144H123.81C124.292 144 124.773 143.634 124.773 143.086V133.211C124.773 129.783 126.173 128.411 128.93 128.411H130.068C130.418 128.411 131.206 128.228 131.206 127.177V122.651C131.206 121.6 130.637 121.417 130.156 121.417H129.543Z" fill="white"/>
<path d="M136.709 119.36C138.766 119.36 140.472 117.531 140.472 115.383C140.472 113.188 138.766 111.36 136.709 111.36C134.608 111.36 132.902 113.188 132.902 115.383C132.902 117.531 134.608 119.36 136.709 119.36ZM138.897 144C139.422 144 139.816 143.543 139.816 142.994V122.743C139.816 122.194 139.422 121.737 138.897 121.737H134.477C133.952 121.737 133.514 122.194 133.514 122.743V142.994C133.514 143.543 133.952 144 134.477 144H138.897Z" fill="white"/>
<path d="M149.858 132.891C149.858 129.783 152.133 127.223 155.109 127.223C158.085 127.223 160.316 129.783 160.316 132.891C160.316 136.046 158.085 138.56 155.109 138.56C152.133 138.56 149.858 136.046 149.858 132.891ZM149.814 122.743C149.814 122.194 149.42 121.737 148.895 121.737H144.519C143.994 121.737 143.6 122.194 143.6 122.743V152.96C143.6 153.508 143.994 153.92 144.519 153.92H148.982C149.464 153.92 149.901 153.508 149.901 152.96V141.897C151.127 143.771 153.708 144.64 156.115 144.64C161.76 144.64 166.662 140.023 166.662 132.846C166.662 125.668 161.76 121.097 156.203 121.097C153.271 121.097 151.039 122.331 149.814 124.114V122.743Z" fill="white"/>
<path d="M175.712 132.891C175.712 129.783 177.988 127.223 180.964 127.223C183.939 127.223 186.171 129.783 186.171 132.891C186.171 136.046 183.939 138.56 180.964 138.56C177.988 138.56 175.712 136.046 175.712 132.891ZM175.668 122.743C175.668 122.194 175.275 121.737 174.749 121.737H170.373C169.848 121.737 169.454 122.194 169.454 122.743V152.96C169.454 153.508 169.848 153.92 170.373 153.92H174.837C175.318 153.92 175.756 153.508 175.756 152.96V141.897C176.981 143.771 179.563 144.64 181.97 144.64C187.615 144.64 192.516 140.023 192.516 132.846C192.516 125.668 187.615 121.097 182.058 121.097C179.126 121.097 176.894 122.331 175.668 124.114V122.743Z" fill="white"/>
<path d="M199.657 154.606C204.077 154.606 206.921 151.954 208.19 147.748L215.454 123.291C215.761 122.377 215.498 121.737 214.623 121.737H209.678C208.978 121.737 208.628 122.24 208.497 122.788L204.558 137.966L200.313 122.788C200.182 122.24 199.876 121.737 199.307 121.737H194.187C193.093 121.737 192.961 122.514 193.18 123.291L199.438 143.04C199.613 143.588 199.963 144 200.62 144H202.851L201.889 146.834C201.407 148.16 200.445 148.937 199.219 148.937C198.213 148.937 197.294 148.434 196.594 147.886C196.025 147.474 195.193 147.291 194.668 148.16L193.093 150.537C192.655 151.223 192.699 151.817 193.18 152.274C194.712 153.737 197.031 154.606 199.657 154.606Z" fill="white"/>
<path d="M220.009 144.64C222.284 144.64 224.166 142.72 224.166 140.343C224.166 137.966 222.284 136.046 220.009 136.046C217.733 136.046 215.895 137.966 215.895 140.343C215.895 142.72 217.733 144.64 220.009 144.64Z" fill="white"/>
<path d="M87.784 112C87.2151 112 86.8213 112.457 86.8213 113.006V142.948C86.8213 143.543 87.2151 144 87.784 144H99.8182C109.271 144 115.485 137.463 115.485 127.954C115.485 118.4 109.271 112 99.8182 112H87.784ZM93.3854 137.691V118.308H99.8182C105.069 118.308 108.614 122.377 108.614 127.954C108.614 133.44 105.069 137.691 99.8182 137.691H93.3854Z" stroke="white" stroke-width="12" mask="url(#path-2-inside-1_5003_5300)"/>
<path d="M129.543 121.417C127.486 121.417 125.692 122.514 124.511 124.48V122.651C124.511 122.148 124.073 121.737 123.592 121.737H119.391C118.865 121.737 118.472 122.194 118.472 122.743V143.04C118.472 143.588 118.865 144 119.391 144H123.81C124.292 144 124.773 143.634 124.773 143.086V133.211C124.773 129.783 126.173 128.411 128.93 128.411H130.068C130.418 128.411 131.206 128.228 131.206 127.177V122.651C131.206 121.6 130.637 121.417 130.156 121.417H129.543Z" stroke="white" stroke-width="12" mask="url(#path-2-inside-1_5003_5300)"/>
<path d="M136.709 119.36C138.766 119.36 140.472 117.531 140.472 115.383C140.472 113.188 138.766 111.36 136.709 111.36C134.608 111.36 132.902 113.188 132.902 115.383C132.902 117.531 134.608 119.36 136.709 119.36ZM138.897 144C139.422 144 139.816 143.543 139.816 142.994V122.743C139.816 122.194 139.422 121.737 138.897 121.737H134.477C133.952 121.737 133.514 122.194 133.514 122.743V142.994C133.514 143.543 133.952 144 134.477 144H138.897Z" stroke="white" stroke-width="12" mask="url(#path-2-inside-1_5003_5300)"/>
<path d="M149.858 132.891C149.858 129.783 152.133 127.223 155.109 127.223C158.085 127.223 160.316 129.783 160.316 132.891C160.316 136.046 158.085 138.56 155.109 138.56C152.133 138.56 149.858 136.046 149.858 132.891ZM149.814 122.743C149.814 122.194 149.42 121.737 148.895 121.737H144.519C143.994 121.737 143.6 122.194 143.6 122.743V152.96C143.6 153.508 143.994 153.92 144.519 153.92H148.982C149.464 153.92 149.901 153.508 149.901 152.96V141.897C151.127 143.771 153.708 144.64 156.115 144.64C161.76 144.64 166.662 140.023 166.662 132.846C166.662 125.668 161.76 121.097 156.203 121.097C153.271 121.097 151.039 122.331 149.814 124.114V122.743Z" stroke="white" stroke-width="12" mask="url(#path-2-inside-1_5003_5300)"/>
<path d="M175.712 132.891C175.712 129.783 177.988 127.223 180.964 127.223C183.939 127.223 186.171 129.783 186.171 132.891C186.171 136.046 183.939 138.56 180.964 138.56C177.988 138.56 175.712 136.046 175.712 132.891ZM175.668 122.743C175.668 122.194 175.275 121.737 174.749 121.737H170.373C169.848 121.737 169.454 122.194 169.454 122.743V152.96C169.454 153.508 169.848 153.92 170.373 153.92H174.837C175.318 153.92 175.756 153.508 175.756 152.96V141.897C176.981 143.771 179.563 144.64 181.97 144.64C187.615 144.64 192.516 140.023 192.516 132.846C192.516 125.668 187.615 121.097 182.058 121.097C179.126 121.097 176.894 122.331 175.668 124.114V122.743Z" stroke="white" stroke-width="12" mask="url(#path-2-inside-1_5003_5300)"/>
<path d="M199.657 154.606C204.077 154.606 206.921 151.954 208.19 147.748L215.454 123.291C215.761 122.377 215.498 121.737 214.623 121.737H209.678C208.978 121.737 208.628 122.24 208.497 122.788L204.558 137.966L200.313 122.788C200.182 122.24 199.876 121.737 199.307 121.737H194.187C193.093 121.737 192.961 122.514 193.18 123.291L199.438 143.04C199.613 143.588 199.963 144 200.62 144H202.851L201.889 146.834C201.407 148.16 200.445 148.937 199.219 148.937C198.213 148.937 197.294 148.434 196.594 147.886C196.025 147.474 195.193 147.291 194.668 148.16L193.093 150.537C192.655 151.223 192.699 151.817 193.18 152.274C194.712 153.737 197.031 154.606 199.657 154.606Z" stroke="white" stroke-width="12" mask="url(#path-2-inside-1_5003_5300)"/>
<path d="M220.009 144.64C222.284 144.64 224.166 142.72 224.166 140.343C224.166 137.966 222.284 136.046 220.009 136.046C217.733 136.046 215.895 137.966 215.895 140.343C215.895 142.72 217.733 144.64 220.009 144.64Z" stroke="white" stroke-width="12" mask="url(#path-2-inside-1_5003_5300)"/>
<path d="M52.4729 102.113C58.0848 101.401 63.742 103.085 68.1999 106.793C72.6579 110.502 75.5514 115.932 76.2441 121.888C76.9367 127.845 75.3716 133.841 71.8931 138.556C68.4147 143.272 63.3078 146.321 57.6959 147.033L46.4365 148.462C43.6794 148.562 40.9741 147.624 38.7988 145.814C36.6236 144.005 35.1185 141.44 34.5497 138.573L33.2441 127.344C32.5515 121.388 34.1166 115.392 37.595 110.677C41.0735 105.961 46.1804 102.912 51.7923 102.2L52.4729 102.113Z" stroke="white" stroke-width="12" mask="url(#path-2-inside-1_5003_5300)"/>
</svg>
